<svg t="1634188056480" class="icon" viewBox="0 0 1024 1024" version="1.1" xmlns="http://www.w3.org/2000/svg" p-id="15365" width="200" height="200"><path d="M483.878533 351.6413c-235.19772 23.008473-273.545175 345.12709-189.180775 536.864361 76.694909 176.39829 654.463222 232.641223 654.463222-178.954787 0-311.892629-186.624278-452.499962-465.282447-357.909574zM118.299468 200.807979c92.033891-12.782485 153.389818 15.338982 153.389818 120.155357 0 138.050836-191.737272 117.59886-217.302242 58.79943-28.121467-63.912424-15.338982-171.285296 63.912424-178.954787z m245.423708-15.338982C335.60171 88.322113 358.610182 16.740198 468.539552 1.401216c148.276824-20.451976 155.946315 189.180775 97.146884 224.971732-66.468921 40.903951-181.511284 43.460448-201.96326-40.903951zM793.214666 251.937918c-61.355927-69.025418-74.138412-135.494339 12.782484-194.293769 112.485866-76.694909 204.519757 92.033891 171.285297 145.720327-38.347454 58.79943-135.494339 107.372872-184.067781 48.573442z" fill="#BCBAC7" p-id="15366"></path></svg>