<svg t="1634286048071" class="icon" viewBox="0 0 9216 1024" version="1.1" xmlns="http://www.w3.org/2000/svg" p-id="3675"
	width="200" height="200">
	<path
		d="M486.968889 699.278222v-101.262222H90.794667v101.262222h395.946666zM2088.618667 1024V172.032h290.133333v-88.746667h-690.062222v88.746667h291.271111V1024h108.657778z m651.946666 0V557.283556h321.991111V1024h109.340445V83.285333h-109.226667v378.083556h-321.991111V83.285333h-109.454222V1024h109.340444z m1282.048 0v-95.345778h-382.065777V565.475556h363.292444V469.902222h-363.292444V178.631111h377.969777V83.171556h-487.310222V1024h491.406222z m1737.159111 0v-95.345778h-381.952V565.475556h363.292445V469.902222h-363.292445V178.631111h377.969778V83.171556h-487.310222V1024h491.292444z m441.230223 0V281.372444L6538.467556 1024h121.400888V83.285333h-107.406222v736.142223L6213.859556 83.171556h-121.969778V1024h109.226666z m963.356444 0c117.76 0 214.357333-40.96 289.678222-122.993778 75.320889-81.92 112.981333-197.632 112.981334-347.022222 0-146.204444-37.091556-261.233778-111.388445-344.974222C7381.560889 125.155556 7282.915556 83.285333 7159.808 83.285333h-185.457778V1024h190.008889z m-3.413333-95.345778h-77.368889V178.631111h77.368889c88.974222 0 159.516444 33.450667 211.626666 100.352 52.337778 66.901333 78.506667 158.606222 78.506667 275.000889 0 117.304889-26.168889 209.123556-78.051555 275.342222-51.996444 66.218667-122.652444 99.328-211.968 99.328z m2011.932444-229.376v-101.262222h-395.946666v101.262222h395.946666z"
		fill="#999999" p-id="3676"></path>
</svg>